<?xml version="1.0" encoding="utf-8"?>
<!-- Generator: Adobe Illustrator 14.0.0, SVG Export Plug-In . SVG Version: 6.00 Build 43363)  -->
<!DOCTYPE svg PUBLIC "-//W3C//DTD SVG 1.1//EN" "http://www.w3.org/Graphics/SVG/1.1/DTD/svg11.dtd">
<svg version="1.1" xmlns="http://www.w3.org/2000/svg" xmlns:xlink="http://www.w3.org/1999/xlink" x="0px" y="0px" width="256px"
	 height="256px" viewBox="0 0 256 256" enable-background="new 0 0 256 256" xml:space="preserve">
<g id="active">
</g>
<g id="Layer_11">
	<g>
		<defs>
			<path id="SVGID_1_" d="M256,206c0,27.614-22.386,50-50,50H50c-27.614,0-37,0-50,0V50C0,22.386,22.386,0,50,0h156
				c27.614,0,37,0,50,0V206z"/>
		</defs>
		<clipPath id="SVGID_2_">
			<use xlink:href="#SVGID_1_"  overflow="visible"/>
		</clipPath>
		<rect clip-path="url(#SVGID_2_)" fill="#005EAB" width="256" height="256"/>
		<path clip-path="url(#SVGID_2_)" fill="#F2F2F2" d="M27.461,32.485c0-1.301,1.055-2.356,2.356-2.356h196.364
			c1.302,0,2.356,1.055,2.356,2.356v154.424c0,1.302-1.055,2.356-2.356,2.356H29.817c-1.301,0-2.356-1.055-2.356-2.356V32.485z"/>
		<rect y="216.195" clip-path="url(#SVGID_2_)" fill="#3C3C3C" width="256" height="39.805"/>
		<g clip-path="url(#SVGID_2_)">
			<path fill="#9B5C8F" d="M48.587,46.127h45.867c2.903,0,5.252,2.35,5.252,5.252v17.507c0,2.903-2.35,5.253-5.252,5.253H78.006
				l2.258,5.529l-9.929-5.529H48.61c-2.902,0-5.252-2.351-5.252-5.253V51.379C43.335,48.5,45.685,46.127,48.587,46.127z"/>
			<path fill="#FFFFFF" d="M46.169,50.896c0.322-0.438,0.806-0.668,1.452-0.714c1.174-0.092,1.842,0.461,2.003,1.659
				c0.714,4.814,1.498,8.892,2.327,12.233l5.045-9.606c0.46-0.875,1.037-1.336,1.728-1.383c1.013-0.068,1.636,0.577,1.889,1.936
				c0.576,3.064,1.313,5.667,2.189,7.879c0.599-5.852,1.612-10.067,3.041-12.67c0.346-0.645,0.853-0.967,1.521-1.013
				c0.53-0.047,1.014,0.114,1.451,0.46c0.438,0.346,0.668,0.784,0.714,1.313c0.023,0.415-0.045,0.76-0.23,1.105
				c-0.898,1.659-1.636,4.446-2.234,8.317c-0.576,3.755-0.784,6.681-0.646,8.776c0.046,0.577-0.045,1.083-0.276,1.521
				c-0.277,0.507-0.691,0.784-1.222,0.83c-0.598,0.045-1.221-0.23-1.819-0.852c-2.143-2.19-3.848-5.461-5.092-9.814
				c-1.497,2.948-2.603,5.16-3.317,6.633c-1.359,2.604-2.511,3.939-3.479,4.009c-0.622,0.046-1.152-0.483-1.612-1.589
				c-1.175-3.018-2.442-8.847-3.801-17.485C45.731,51.84,45.846,51.311,46.169,50.896z"/>
			<path fill="#FFFFFF" d="M95.698,54.512c-0.829-1.451-2.05-2.327-3.686-2.672c-0.438-0.092-0.852-0.138-1.244-0.138
				c-2.211,0-4.008,1.152-5.413,3.456c-1.198,1.958-1.797,4.124-1.797,6.497c0,1.774,0.369,3.294,1.106,4.562
				c0.829,1.451,2.05,2.326,3.686,2.671c0.438,0.093,0.853,0.139,1.244,0.139c2.235,0,4.032-1.152,5.414-3.456
				c1.198-1.98,1.796-4.146,1.796-6.519C96.804,57.254,96.435,55.756,95.698,54.512L95.698,54.512z M92.795,60.894
				c-0.322,1.521-0.897,2.649-1.75,3.41c-0.668,0.598-1.291,0.853-1.866,0.737c-0.553-0.115-1.015-0.599-1.36-1.497
				c-0.276-0.715-0.414-1.428-0.414-2.097c0-0.575,0.046-1.152,0.161-1.682c0.207-0.944,0.598-1.866,1.221-2.742
				c0.76-1.128,1.567-1.589,2.396-1.428c0.553,0.115,1.014,0.599,1.359,1.497c0.276,0.715,0.414,1.429,0.414,2.097
				C92.957,59.788,92.888,60.364,92.795,60.894L92.795,60.894z"/>
			<path fill="#FFFFFF" d="M81.254,54.512c-0.829-1.451-2.073-2.327-3.686-2.672c-0.438-0.092-0.852-0.138-1.244-0.138
				c-2.212,0-4.008,1.152-5.414,3.456c-1.198,1.958-1.796,4.124-1.796,6.497c0,1.774,0.369,3.294,1.105,4.562
				c0.829,1.451,2.05,2.326,3.687,2.671c0.437,0.093,0.852,0.139,1.243,0.139c2.234,0,4.032-1.152,5.414-3.456
				c1.198-1.98,1.797-4.146,1.797-6.519C82.36,57.254,81.991,55.756,81.254,54.512L81.254,54.512z M78.352,60.894
				c-0.323,1.521-0.899,2.649-1.751,3.41c-0.668,0.598-1.291,0.853-1.866,0.737c-0.553-0.115-1.014-0.599-1.359-1.497
				c-0.276-0.715-0.414-1.428-0.414-2.097c0-0.575,0.046-1.152,0.161-1.682c0.208-0.944,0.599-1.866,1.221-2.742
				c0.76-1.128,1.567-1.589,2.396-1.428c0.553,0.115,1.014,0.599,1.359,1.497c0.276,0.715,0.415,1.429,0.415,2.097
				C78.513,59.788,78.466,60.364,78.352,60.894L78.352,60.894z"/>
			<g>
				<path d="M105.535,54.305c-1.543,1.521-2.304,3.456-2.304,5.805c0,2.512,0.76,4.562,2.28,6.105s3.501,2.326,5.966,2.326
					c0.714,0,1.521-0.114,2.396-0.368v-3.731c-0.806,0.23-1.497,0.345-2.096,0.345c-1.221,0-2.188-0.415-2.926-1.221
					c-0.737-0.829-1.105-1.935-1.105-3.34c0-1.313,0.368-2.396,1.083-3.226c0.737-0.853,1.636-1.267,2.742-1.267
					c0.714,0,1.474,0.115,2.303,0.346v-3.732c-0.76-0.207-1.612-0.299-2.511-0.299C109.013,52.024,107.078,52.785,105.535,54.305z
					 M121.522,52.024c-2.119,0-3.778,0.714-4.976,2.119c-1.198,1.405-1.774,3.387-1.774,5.921c0,2.741,0.599,4.837,1.774,6.29
					c1.175,1.45,2.902,2.187,5.16,2.187c2.188,0,3.87-0.737,5.044-2.187c1.176-1.453,1.774-3.502,1.774-6.128
					c0-2.626-0.599-4.653-1.797-6.082C125.508,52.738,123.78,52.024,121.522,52.024z M123.342,64.003
					c-0.414,0.646-1.036,0.968-1.819,0.968c-0.737,0-1.29-0.323-1.682-0.968c-0.392-0.645-0.575-1.935-0.575-3.894
					c0-3.018,0.76-4.515,2.303-4.515c1.613,0,2.442,1.521,2.442,4.584C123.987,62.068,123.758,63.358,123.342,64.003z
					 M139.906,52.462l-0.829,3.524c-0.208,0.898-0.416,1.821-0.6,2.765l-0.461,2.442c-0.437-2.442-1.036-5.345-1.797-8.731h-5.345
					L128.87,68.15h4.01l1.082-10.804l2.742,10.804h2.856l2.627-10.781l1.127,10.781h4.193l-2.119-15.688H139.906L139.906,52.462z
					 M159.097,52.462l-0.83,3.524c-0.207,0.898-0.414,1.821-0.6,2.765l-0.46,2.442c-0.438-2.442-1.037-5.345-1.797-8.731h-5.345
					l-2.003,15.688h4.007l1.083-10.804l2.74,10.804h2.858l2.604-10.781l1.127,10.781h4.194l-2.12-15.688H159.097z M172.135,61.954
					h3.755v-3.249h-3.755v-2.879h4.33v-3.34h-8.568v15.688h8.593v-3.339h-4.354V61.954z M188.421,59.465
					c0.438-0.714,0.669-1.452,0.669-2.211c0-1.474-0.575-2.65-1.728-3.502c-1.151-0.853-2.742-1.29-4.723-1.29h-4.931V68.15h4.239
					v-7.141h0.069l3.433,7.141h4.469l-3.386-7.072C187.338,60.709,187.984,60.18,188.421,59.465z M181.926,59.212V55.48
					c1.014,0.023,1.728,0.184,2.166,0.506c0.437,0.323,0.644,0.83,0.644,1.567C184.735,58.636,183.792,59.189,181.926,59.212z
					 M191.578,54.305c-1.544,1.521-2.305,3.456-2.305,5.805c0,2.512,0.761,4.562,2.282,6.105c1.52,1.543,3.501,2.326,5.966,2.326
					c0.715,0,1.521-0.114,2.395-0.368v-3.731c-0.805,0.23-1.496,0.345-2.096,0.345c-1.22,0-2.188-0.415-2.925-1.221
					c-0.737-0.829-1.105-1.935-1.105-3.34c0-1.313,0.368-2.396,1.081-3.226c0.737-0.853,1.637-1.267,2.743-1.267
					c0.713,0,1.474,0.115,2.302,0.346v-3.732c-0.758-0.207-1.61-0.299-2.509-0.299C195.079,52.024,193.121,52.785,191.578,54.305z
					 M205.331,64.787V61.93h3.755v-3.248h-3.755v-2.88h4.354v-3.34h-8.57V68.15h8.594v-3.34h-4.378V64.787z"/>
			</g>
		</g>
		<path clip-path="url(#SVGID_2_)" fill="#FFFFFF" d="M56.078,227.495c0,1.158-0.208,7.269-4.429,11.527
			c-4.222-4.259-4.43-10.369-4.43-11.527c-1.53,0.322-3.001,0.742-4.4,1.248c2.085,8.556,8.34,12.212,8.831,12.487
			c0.489-0.275,6.744-3.932,8.829-12.487C59.079,228.237,57.606,227.817,56.078,227.495"/>
		<path clip-path="url(#SVGID_2_)" fill="#FFFFFF" d="M61.565,229.16c-0.45,1.305-3.446,9.312-9.917,12.073
			c-6.472-2.762-9.468-10.769-9.917-12.073c-1.716,0.696-3.312,1.526-4.762,2.473c3.238,6.877,13.999,11.697,14.679,11.996
			c0.679-0.299,11.439-5.119,14.678-11.996C64.877,230.687,63.28,229.856,61.565,229.16"/>
		<path clip-path="url(#SVGID_2_)" fill="#FFFFFF" d="M67.279,232.284c-1.346,1.869-6.657,8.491-15.63,10.563
			c-8.975-2.072-14.286-8.694-15.632-10.563c-2.156,1.554-3.937,3.373-5.241,5.389c7.521,5.798,20.145,5.967,20.873,5.972
			c0.727-0.005,13.351-0.174,20.872-5.972C71.216,235.657,69.435,233.838,67.279,232.284"/>
		<path clip-path="url(#SVGID_2_)" fill="#FFFFFF" d="M73.189,238.797c-6.721,4.322-20.782,4.823-21.541,4.847
			c-0.759-0.023-14.821-0.524-21.542-4.847c-0.292,0.538-0.55,1.089-0.772,1.649c1.074,0.449,9.227,3.655,22.314,3.198
			c13.086,0.457,21.238-2.749,22.312-3.198C73.738,239.886,73.479,239.335,73.189,238.797"/>
		<path clip-path="url(#SVGID_2_)" fill="#FFFFFF" d="M83.181,241.2l1.832-2.605c1.102,1.151,2.815,2.136,4.975,2.136
			c1.854,0,2.723-0.821,2.723-1.735c0-2.723-9.012-0.821-9.012-6.713c0-2.604,2.253-4.765,5.938-4.765
			c2.487,0,4.553,0.751,6.102,2.183l-1.854,2.488c-1.267-1.173-2.957-1.714-4.553-1.714c-1.407,0-2.207,0.611-2.207,1.549
			c0,2.465,8.989,0.798,8.989,6.643c0,2.864-2.065,5.023-6.266,5.023C86.819,243.689,84.66,242.679,83.181,241.2"/>
		<polygon clip-path="url(#SVGID_2_)" fill="#FFFFFF" points="109.043,243.406 104.302,237.117 103.082,238.595 103.082,243.406 
			99.75,243.406 99.75,227.753 103.082,227.753 103.082,234.724 108.62,227.753 112.727,227.753 106.509,235.1 113.149,243.406 		
			"/>
		<polygon clip-path="url(#SVGID_2_)" fill="#FFFFFF" points="120.191,243.406 120.191,237 114.184,227.753 117.985,227.753 
			121.857,234.02 125.729,227.753 129.509,227.753 123.524,237 123.524,243.406 		"/>
		<polygon clip-path="url(#SVGID_2_)" fill="#FFFFFF" points="136.759,243.406 130.726,227.753 134.506,227.753 138.848,239.77 
			143.188,227.753 146.967,227.753 140.935,243.406 		"/>
		<polygon clip-path="url(#SVGID_2_)" fill="#FFFFFF" points="149.594,243.406 149.594,227.753 160.671,227.753 160.671,230.687 
			152.926,230.687 152.926,233.972 160.507,233.972 160.507,236.906 152.926,236.906 152.926,240.476 160.671,240.476 
			160.671,243.406 		"/>
		<path clip-path="url(#SVGID_2_)" fill="#FFFFFF" d="M173.295,243.406l-3.073-5.562h-2.441v5.562h-3.333v-15.653h7.323
			c3.262,0,5.279,2.137,5.279,5.046c0,2.745-1.76,4.249-3.449,4.646l3.544,5.962H173.295z M173.623,232.775
			c0-1.292-1.008-2.088-2.322-2.088h-3.521v4.224h3.521C172.615,234.911,173.623,234.114,173.623,232.775"/>
		<path clip-path="url(#SVGID_2_)" fill="#FFFFFF" d="M179.961,235.591c0-4.951,3.756-8.097,8.355-8.097
			c3.238,0,5.28,1.644,6.453,3.497l-2.746,1.501c-0.727-1.101-2.066-2.041-3.707-2.041c-2.863,0-4.93,2.183-4.93,5.14
			c0,2.958,2.066,5.14,4.93,5.14c1.384,0,2.676-0.609,3.309-1.196v-1.879h-4.131v-2.908h7.463v6.008
			c-1.595,1.783-3.824,2.934-6.641,2.934C183.717,243.688,179.961,240.521,179.961,235.591"/>
		<polygon clip-path="url(#SVGID_2_)" fill="#FFFFFF" points="198.78,243.406 198.78,227.753 209.858,227.753 209.858,230.687 
			202.113,230.687 202.113,233.972 209.694,233.972 209.694,236.906 202.113,236.906 202.113,240.476 209.858,240.476 
			209.858,243.406 		"/>
		<g clip-path="url(#SVGID_2_)">
			<g>
				<path fill="#CCCCCC" d="M136.612,125.784V115.07h-8.066c-0.484-2-1.244-3.888-2.246-5.624l5.644-5.645l-7.575-7.576
					l-5.572,5.572c-1.752-1.059-3.663-1.871-5.696-2.395v-7.845h-10.714v7.845c-2.034,0.524-3.946,1.336-5.698,2.395l-5.57-5.571
					l-7.576,7.575l5.645,5.645c-1.002,1.736-1.76,3.624-2.246,5.624h-8.066v10.714h8.219c0.525,1.924,1.31,3.732,2.318,5.399
					l-5.87,5.869l7.576,7.576l5.942-5.943c1.649,0.953,3.437,1.682,5.326,2.17v8.44h10.714v-8.44
					c1.889-0.487,3.676-1.217,5.326-2.17l5.942,5.943l7.576-7.575l-5.87-5.869c1.008-1.668,1.792-3.477,2.317-5.4H136.612z
					 M107.744,132.332c-6.574,0-11.905-5.331-11.905-11.905c0-6.575,5.331-11.905,11.905-11.905c6.575,0,11.904,5.33,11.904,11.905
					C119.648,127.001,114.319,132.332,107.744,132.332z"/>
				<path fill="#CCCCCC" d="M113.101,149.796h-10.714c-0.276,0-0.5-0.224-0.5-0.5v-8.057c-1.666-0.462-3.258-1.109-4.741-1.932
					l-5.674,5.675c-0.188,0.188-0.52,0.188-0.707,0l-7.576-7.576c-0.094-0.094-0.146-0.221-0.146-0.354s0.053-0.26,0.146-0.354
					l5.596-5.595c-0.883-1.521-1.577-3.139-2.069-4.82h-7.841c-0.276,0-0.5-0.224-0.5-0.5V115.07c0-0.276,0.224-0.5,0.5-0.5h7.676
					c0.463-1.768,1.139-3.459,2.013-5.039l-5.375-5.376c-0.094-0.094-0.146-0.221-0.146-0.354s0.053-0.26,0.146-0.354l7.576-7.575
					c0.094-0.094,0.221-0.146,0.354-0.146l0,0c0.133,0,0.26,0.053,0.354,0.146l5.295,5.297c1.607-0.932,3.325-1.654,5.119-2.151
					v-7.461c0-0.276,0.224-0.5,0.5-0.5h10.714c0.276,0,0.5,0.224,0.5,0.5v7.461c1.792,0.496,3.51,1.218,5.117,2.151l5.298-5.298
					c0.188-0.188,0.52-0.188,0.707,0l7.575,7.576c0.195,0.195,0.195,0.512,0,0.707l-5.375,5.376
					c0.876,1.583,1.552,3.274,2.013,5.039h7.677c0.276,0,0.5,0.224,0.5,0.5v10.714c0,0.276-0.224,0.5-0.5,0.5h-7.842
					c-0.492,1.682-1.186,3.3-2.068,4.821l5.595,5.595c0.094,0.094,0.146,0.221,0.146,0.354s-0.053,0.26-0.146,0.354l-7.576,7.575
					c-0.094,0.094-0.221,0.146-0.354,0.146l0,0c-0.133,0-0.26-0.053-0.354-0.146l-5.673-5.675c-1.485,0.823-3.077,1.472-4.741,1.932
					v8.057C113.601,149.572,113.377,149.796,113.101,149.796L113.101,149.796z M102.887,148.796h9.714v-7.94
					c0-0.229,0.154-0.427,0.375-0.484c1.839-0.474,3.588-1.187,5.201-2.118c0.195-0.115,0.443-0.081,0.604,0.079l5.588,5.59
					l6.869-6.868l-5.516-5.516c-0.163-0.162-0.193-0.415-0.074-0.612c0.996-1.648,1.757-3.423,2.263-5.273
					c0.06-0.217,0.257-0.368,0.482-0.368h7.72v-9.714h-7.566c-0.231,0-0.432-0.158-0.486-0.382
					c-0.469-1.935-1.207-3.783-2.193-5.491c-0.113-0.196-0.081-0.443,0.08-0.604l5.291-5.291l-6.868-6.869l-5.219,5.219
					c-0.163,0.164-0.416,0.194-0.612,0.074c-1.731-1.046-3.603-1.833-5.562-2.338c-0.221-0.057-0.375-0.256-0.375-0.484v-7.345
					h-9.714v7.345c0,0.228-0.154,0.427-0.375,0.484c-1.962,0.506-3.834,1.292-5.564,2.338c-0.196,0.12-0.45,0.088-0.612-0.074
					l-5.216-5.218l-6.869,6.868l5.291,5.291c0.16,0.16,0.193,0.408,0.08,0.604c-0.984,1.704-1.722,3.551-2.193,5.492
					c-0.054,0.224-0.255,0.382-0.486,0.382h-7.566v9.714h7.719c0.226,0,0.423,0.151,0.482,0.368
					c0.505,1.851,1.267,3.624,2.264,5.272c0.119,0.197,0.088,0.449-0.074,0.612l-5.517,5.516l6.869,6.869l5.589-5.59
					c0.16-0.16,0.407-0.194,0.604-0.079c1.609,0.93,3.359,1.643,5.201,2.118c0.221,0.058,0.375,0.257,0.375,0.484V148.796
					L102.887,148.796z M107.744,132.832c-6.84,0-12.405-5.565-12.405-12.405s5.565-12.405,12.405-12.405s12.404,5.565,12.404,12.405
					S114.583,132.832,107.744,132.832L107.744,132.832z M107.744,109.022c-6.289,0-11.405,5.116-11.405,11.405
					s5.116,11.405,11.405,11.405s11.404-5.116,11.404-11.405S114.032,109.022,107.744,109.022L107.744,109.022z"/>
			</g>
			<g>
				<path fill="#CCCCCC" d="M177.125,143.236v-7.289h-5.49c-0.33-1.362-0.847-2.647-1.529-3.83l3.842-3.842l-5.155-5.157
					l-3.793,3.793c-1.193-0.72-2.494-1.272-3.88-1.63v-5.34h-7.292v5.34c-1.382,0.357-2.687,0.91-3.876,1.63l-3.792-3.792
					l-5.157,5.155l3.842,3.842c-0.682,1.183-1.198,2.468-1.527,3.83h-5.491v7.289h5.595c0.358,1.311,0.893,2.543,1.578,3.678
					l-3.996,3.994l5.157,5.156l4.044-4.044c1.122,0.648,2.341,1.146,3.624,1.477v5.745h7.292v-5.745
					c1.287-0.331,2.506-0.828,3.628-1.477l4.045,4.044l5.155-5.155l-3.995-3.995c0.686-1.135,1.221-2.367,1.579-3.678H177.125z
					 M157.475,147.695c-4.474,0-8.103-3.63-8.103-8.104c0-4.476,3.629-8.103,8.103-8.103c4.475,0,8.104,3.627,8.104,8.103
					C165.578,144.065,161.949,147.695,157.475,147.695z"/>
				<path fill="#CCCCCC" d="M161.119,159.742h-7.292c-0.276,0-0.5-0.224-0.5-0.5v-5.363c-1.062-0.303-2.082-0.718-3.038-1.237
					l-3.776,3.776c-0.195,0.195-0.512,0.195-0.707,0l-5.157-5.156c-0.094-0.094-0.146-0.221-0.146-0.354s0.053-0.26,0.146-0.354
					l3.723-3.721c-0.558-0.98-1.003-2.02-1.328-3.098h-5.218c-0.276,0-0.5-0.224-0.5-0.5v-7.289c0-0.276,0.224-0.5,0.5-0.5h5.103
					c0.305-1.132,0.739-2.22,1.295-3.244l-3.574-3.574c-0.094-0.094-0.146-0.221-0.146-0.354s0.053-0.26,0.146-0.354l5.157-5.155
					c0.195-0.195,0.512-0.195,0.707,0l3.519,3.518c1.035-0.59,2.141-1.055,3.296-1.385v-4.958c0-0.276,0.224-0.5,0.5-0.5h7.292
					c0.276,0,0.5,0.224,0.5,0.5v4.958c1.151,0.329,2.258,0.794,3.3,1.386l3.52-3.52c0.094-0.094,0.221-0.146,0.354-0.146l0,0
					c0.133,0,0.26,0.053,0.354,0.146l5.155,5.157c0.195,0.195,0.195,0.512,0,0.707l-3.574,3.574c0.556,1.023,0.99,2.111,1.296,3.244
					h5.103c0.276,0,0.5,0.224,0.5,0.5v7.289c0,0.276-0.224,0.5-0.5,0.5h-5.217c-0.325,1.077-0.771,2.116-1.329,3.098l3.722,3.722
					c0.094,0.094,0.146,0.221,0.146,0.354s-0.053,0.26-0.146,0.354l-5.155,5.155c-0.195,0.195-0.512,0.195-0.707,0l-3.777-3.776
					c-0.957,0.521-1.978,0.936-3.042,1.238v5.362C161.619,159.519,161.396,159.742,161.119,159.742L161.119,159.742z
					 M154.327,158.742h6.292v-5.245c0-0.229,0.154-0.428,0.375-0.484c1.239-0.318,2.418-0.798,3.503-1.425
					c0.194-0.113,0.442-0.083,0.604,0.079l3.691,3.69l4.448-4.448l-3.642-3.642c-0.163-0.162-0.193-0.415-0.074-0.612
					c0.671-1.11,1.184-2.306,1.524-3.551c0.06-0.218,0.257-0.368,0.482-0.368h5.094v-6.289h-4.99c-0.23,0-0.432-0.158-0.486-0.382
					c-0.315-1.304-0.812-2.548-1.476-3.698c-0.113-0.196-0.081-0.443,0.079-0.604l3.488-3.488l-4.448-4.45l-3.439,3.439
					c-0.163,0.163-0.416,0.194-0.612,0.075c-1.166-0.704-2.427-1.233-3.746-1.574c-0.221-0.057-0.375-0.256-0.375-0.484v-4.84
					h-6.292v4.84c0,0.228-0.154,0.427-0.375,0.484c-1.324,0.343-2.583,0.872-3.742,1.574c-0.196,0.118-0.449,0.089-0.612-0.074
					l-3.438-3.438l-4.45,4.448l3.488,3.488c0.16,0.16,0.192,0.407,0.08,0.604c-0.664,1.151-1.16,2.396-1.475,3.697
					c-0.055,0.225-0.256,0.383-0.486,0.383h-4.991v6.289h5.095c0.226,0,0.423,0.15,0.482,0.368c0.341,1.247,0.854,2.442,1.523,3.551
					c0.119,0.197,0.089,0.45-0.074,0.612l-3.643,3.641l4.45,4.449l3.69-3.69c0.161-0.161,0.408-0.193,0.604-0.079
					c1.084,0.626,2.262,1.105,3.499,1.425c0.221,0.058,0.375,0.256,0.375,0.484V158.742L154.327,158.742z M157.475,148.195
					c-4.743,0-8.603-3.859-8.603-8.604c0-4.743,3.859-8.603,8.603-8.603c4.744,0,8.604,3.859,8.604,8.603
					C166.078,144.336,162.219,148.195,157.475,148.195L157.475,148.195z M157.475,131.989c-4.192,0-7.603,3.41-7.603,7.603
					s3.41,7.604,7.603,7.604s7.604-3.411,7.604-7.604S161.667,131.989,157.475,131.989L157.475,131.989z"/>
			</g>
			<g>
				<path fill="#CCCCCC" d="M138.795,165.66v-4.588h-3.457c-0.208-0.859-0.532-1.668-0.962-2.412l2.419-2.419l-3.246-3.247
					l-2.388,2.388c-0.75-0.453-1.57-0.801-2.443-1.025v-3.362h-4.591v3.362c-0.871,0.225-1.691,0.572-2.441,1.025l-2.387-2.387
					l-3.248,3.246l2.419,2.419c-0.43,0.744-0.755,1.553-0.962,2.412h-3.458v4.588h3.523c0.225,0.826,0.562,1.602,0.994,2.316
					l-2.516,2.515l3.248,3.247l2.546-2.547c0.707,0.408,1.473,0.721,2.282,0.931v3.616h4.591v-3.616
					c0.81-0.21,1.577-0.522,2.284-0.931l2.547,2.547l3.246-3.247l-2.516-2.515c0.432-0.715,0.769-1.49,0.994-2.316H138.795z
					 M126.423,168.468c-2.817,0-5.102-2.284-5.102-5.102c0-2.818,2.284-5.103,5.102-5.103c2.817,0,5.102,2.284,5.102,5.103
					C131.525,166.184,129.24,168.468,126.423,168.468z"/>
				<path fill="#CCCCCC" d="M128.718,176.238h-4.591c-0.276,0-0.5-0.224-0.5-0.5v-3.237c-0.59-0.178-1.157-0.409-1.694-0.69
					l-2.28,2.281c-0.187,0.188-0.519,0.188-0.707,0l-3.248-3.247c-0.094-0.094-0.146-0.221-0.146-0.354s0.053-0.26,0.146-0.354
					l2.245-2.243c-0.304-0.554-0.553-1.135-0.743-1.734h-3.149c-0.276,0-0.5-0.224-0.5-0.5v-4.588c0-0.276,0.224-0.5,0.5-0.5h3.072
					c0.181-0.634,0.425-1.245,0.729-1.824l-2.154-2.153c-0.094-0.094-0.146-0.221-0.146-0.354s0.053-0.26,0.146-0.354l3.248-3.246
					c0.195-0.195,0.512-0.195,0.707,0l2.116,2.115c0.59-0.323,1.212-0.585,1.859-0.779v-2.983c0-0.276,0.224-0.5,0.5-0.5h4.591
					c0.276,0,0.5,0.224,0.5,0.5v2.982c0.647,0.195,1.271,0.456,1.861,0.78l2.116-2.116c0.094-0.094,0.221-0.146,0.354-0.146l0,0
					c0.133,0,0.26,0.053,0.354,0.146l3.246,3.247c0.195,0.195,0.195,0.512,0,0.707l-2.153,2.153
					c0.303,0.578,0.547,1.189,0.728,1.824h3.072c0.276,0,0.5,0.224,0.5,0.5v4.588c0,0.276-0.224,0.5-0.5,0.5h-3.147
					c-0.19,0.6-0.439,1.18-0.743,1.733l2.244,2.244c0.094,0.094,0.146,0.221,0.146,0.354s-0.053,0.26-0.146,0.354l-3.246,3.247
					c-0.188,0.188-0.52,0.188-0.707,0l-2.281-2.281c-0.538,0.281-1.105,0.513-1.696,0.69v3.237
					C129.218,176.015,128.995,176.238,128.718,176.238L128.718,176.238z M124.627,175.238h3.591v-3.116
					c0-0.228,0.154-0.427,0.375-0.484c0.766-0.198,1.491-0.494,2.159-0.879c0.194-0.115,0.442-0.082,0.604,0.079l2.193,2.193
					l2.539-2.54l-2.162-2.161c-0.163-0.162-0.193-0.415-0.074-0.612c0.414-0.686,0.73-1.422,0.939-2.189
					c0.06-0.218,0.257-0.368,0.482-0.368h3.021v-3.588h-2.957c-0.23,0-0.432-0.158-0.486-0.383
					c-0.194-0.806-0.501-1.572-0.908-2.279c-0.113-0.196-0.081-0.443,0.079-0.604l2.065-2.065l-2.539-2.54l-2.034,2.034
					c-0.164,0.163-0.416,0.194-0.612,0.074c-0.717-0.433-1.494-0.759-2.309-0.969c-0.221-0.057-0.375-0.256-0.375-0.484v-2.862
					h-3.591v2.862c0,0.228-0.154,0.427-0.375,0.484c-0.815,0.21-1.591,0.536-2.308,0.969c-0.198,0.12-0.449,0.089-0.612-0.074
					l-2.033-2.033l-2.541,2.539l2.066,2.065c0.16,0.16,0.193,0.408,0.08,0.604c-0.409,0.708-0.715,1.475-0.91,2.279
					c-0.054,0.225-0.255,0.383-0.486,0.383h-2.958v3.588h3.023c0.226,0,0.423,0.151,0.482,0.368
					c0.209,0.769,0.525,1.505,0.939,2.189c0.119,0.197,0.088,0.45-0.074,0.612l-2.163,2.161l2.541,2.54l2.192-2.193
					c0.161-0.161,0.408-0.194,0.604-0.079c0.667,0.385,1.393,0.681,2.158,0.879c0.221,0.058,0.375,0.257,0.375,0.484V175.238
					L124.627,175.238z M126.423,168.968c-3.089,0-5.602-2.513-5.602-5.602s2.513-5.603,5.602-5.603c3.089,0,5.602,2.514,5.602,5.603
					S129.513,168.968,126.423,168.968L126.423,168.968z M126.423,158.764c-2.537,0-4.602,2.064-4.602,4.603
					c0,2.537,2.064,4.602,4.602,4.602c2.538,0,4.602-2.064,4.602-4.602C131.025,160.828,128.961,158.764,126.423,158.764
					L126.423,158.764z"/>
			</g>
		</g>
	</g>
</g>
</svg>
